<?xml version="1.0" encoding="UTF-8"?>
<svg width="68px" height="69px" viewBox="0 0 68 69" version="1.1" xmlns="http://www.w3.org/2000/svg" xmlns:xlink="http://www.w3.org/1999/xlink">
    <!-- Generator: Sketch 47.1 (45422) - http://www.bohemiancoding.com/sketch -->
    <title>aid</title>
    <desc>Created with Sketch.</desc>
    <defs></defs>
    <g id="Visual-2" stroke="none" stroke-width="1" fill="none" fill-rule="evenodd">
        <g id="01_startseite" transform="translate(-553.000000, -4631.000000)" stroke="#000000" stroke-width="3">
            <g id="Group-11" transform="translate(517.000000, 4596.000000)">
                <path d="M95.8290082,50.1713905 C96.5020082,50.1843905 97.1660082,50.3013905 97.8000082,50.5313905 C98.1710082,50.6673905 98.5300082,50.8403905 98.8680082,51.0453905 C100.067008,51.7733905 100.994008,52.9193905 101.465008,54.2543905 C101.683008,54.8743905 101.797008,55.5223905 101.818008,56.1783905 C102.058008,69.2773905 102.063008,82.3823905 101.818008,95.4803905 C101.810008,95.7433905 101.788008,96.0033905 101.750008,96.2633905 C101.659008,96.8673905 101.479008,97.4573905 101.218008,98.0073905 C101.005008,98.4563905 100.738008,98.8793905 100.426008,99.2633905 C99.6270082,100.24739 98.5290082,100.96939 97.3160082,101.30239 C96.8450082,101.43239 96.3630082,101.50039 95.8760082,101.51539 C78.5960082,101.84739 61.3080082,101.83939 44.0290082,101.51539 C43.3840082,101.49439 42.7470082,101.37839 42.1380082,101.15739 C41.7200082,101.00639 41.3190082,100.80639 40.9450082,100.56639 C39.8100082,99.8373905 38.9330082,98.7273905 38.4800082,97.4413905 C38.2530082,96.7993905 38.1380082,96.1263905 38.1250082,95.4453905 C38.0450082,82.3573905 37.8880082,69.2663905 38.1270082,56.1803905 C38.1470082,55.5223905 38.2620082,54.8743905 38.4800082,54.2553905 C38.9510082,52.9193905 39.8780082,51.7733905 41.0760082,51.0453905 C41.4160082,50.8403905 41.7740082,50.6673905 42.1460082,50.5313905 C42.7560082,50.3103905 43.3940082,50.1943905 44.0410082,50.1733905 C61.3010082,49.8463905 78.5670082,50.0623905 95.8290082,50.1713905 L95.8290082,50.1713905 Z M54.5,46 L54.5,42 L54.5,42 C54.5,39.2385763 56.7385763,37 59.5,37 L81.5,37 L81.5,37 C84.2614237,37 86.5,39.2385763 86.5,42 L86.5,46 M70,76.5 L58,76.5 L70,76.5 L70,64 L70,76.5 Z M70,76.5 L82,76.5 L70,76.5 L70,88 L70,76.5 Z" id="aid"></path>
            </g>
        </g>
    </g>
</svg>