<?xml version="1.0" encoding="UTF-8"?>
<svg width="50px" height="67px" viewBox="0 0 50 67" version="1.1" xmlns="http://www.w3.org/2000/svg" xmlns:xlink="http://www.w3.org/1999/xlink">
    <!-- Generator: Sketch 47.1 (45422) - http://www.bohemiancoding.com/sketch -->
    <title>Shape</title>
    <desc>Created with Sketch.</desc>
    <defs></defs>
    <g id="Visual-2" stroke="none" stroke-width="1" fill="none" fill-rule="evenodd">
        <g id="01_startseite" transform="translate(-295.000000, -4632.000000)" fill="#000000">
            <g id="Group-10" transform="translate(250.000000, 4596.000000)">
                <path d="M69.1911755,42.2858056 C69.8631778,41.6409854 70.5638724,41.0308979 71.2932591,40.454033 C72.255204,39.695954 73.2639626,38.9997898 74.3361461,38.4048034 C75.6423978,37.6814571 77.0528476,37.101572 78.5342729,36.8675038 C78.9314338,36.8025687 79.3301049,36.7708562 79.730286,36.7572652 C79.9039495,36.7542449 79.9039495,36.7542449 80.0776131,36.7572652 C80.7918987,36.7814271 81.4971236,36.8856252 82.1781866,37.1091226 C82.4711494,37.20426 82.7595819,37.3190289 83.0389536,37.4534294 C83.2730218,37.5651781 83.4965192,37.692028 83.7064256,37.8430397 C83.8861296,37.9729098 84.0567729,38.1224115 84.212315,38.2824839 C85.1772801,39.2791615 85.5427286,40.6956518 85.612194,42.047207 C85.6272951,42.2978865 85.6303154,42.5470559 85.625785,42.7962253 C85.6182344,43.0529453 85.6061535,43.3081552 85.5850118,43.561855 C85.5532994,43.9544855 85.5034655,44.3471161 85.4400406,44.7367264 C85.3630246,45.2033528 85.2648669,45.6669588 85.150098,46.1260346 C84.9990862,46.7331019 84.8178721,47.3311084 84.6094759,47.9215644 C84.3754077,48.5829959 84.1081169,49.2338566 83.8060933,49.8665958 C83.4210134,50.6760188 82.9815692,51.46128 82.4771899,52.2012376 C82.1404337,52.6965561 81.7734751,53.1692229 81.3732939,53.6116874 C81.2434238,53.7551486 81.1105335,53.8955895 80.9731128,54.0330102 C80.9776431,54.0798238 80.9821735,54.1266375 80.9867038,54.1734511 C81.1497965,55.4404398 81.4321885,56.6908171 81.8278393,57.9064618 C82.3337287,59.4588626 83.0223423,60.9433082 83.9027409,62.3190253 C84.2440274,62.8566272 84.6245771,63.3700671 85.0292886,63.8623655 L85.086673,63.9303208 C85.2558062,64.0496201 85.4219191,64.1719396 85.5880321,64.2957692 C85.7632057,64.4301697 85.9383794,64.5660803 86.1105328,64.7050111 C86.832369,65.2969772 87.513432,65.9327367 88.1461712,66.6168199 C91.0863702,69.8046781 92.9317338,73.8819956 93.858946,78.0922034 C93.9978768,78.7219224 94.115666,79.3561718 94.2153338,79.9919313 C94.346714,80.8345769 94.4418514,81.6832629 94.5037662,82.5349692 C94.5883328,83.687189 94.6094745,84.8409188 94.565681,85.9946486 C94.4931954,87.9985746 94.2274147,89.9994804 93.7336063,91.9445118 C93.5931653,92.4972149 93.4330929,93.0438774 93.2533889,93.5875198 C93.1340896,93.9393771 93.0087498,94.2882143 92.8728392,94.6325211 C91.8701212,97.1846198 90.3147001,99.6159091 88.0042202,101.160759 C87.6372616,101.406909 87.2552019,101.625876 86.8595511,101.820681 C86.3143986,102.087972 85.7435742,102.302408 85.1591587,102.465501 C84.2243959,102.722221 83.2594308,102.83548 82.2929555,102.8385 C81.2992982,102.830949 80.3041307,102.821889 79.3089632,102.817358 C76.5092052,102.809808 73.7079371,102.817358 70.906669,102.829439 L69.5732352,102.8385 C68.1824169,102.829439 66.7931088,102.821889 65.4007804,102.817358 C64.1262411,102.814338 62.8517019,102.812828 61.5771627,102.814338 C60.6167279,102.817358 59.6578033,102.820379 58.6988786,102.827929 C58.2760457,102.83246 57.8547229,102.84152 57.43189,102.83548 C57.2597366,102.83246 57.0875831,102.824909 56.9169399,102.814338 C56.0244604,102.752423 55.1440618,102.589331 54.2953758,102.303918 C53.7562638,102.121194 53.2337631,101.894677 52.7354243,101.621345 C52.3865871,101.43107 52.0498309,101.219654 51.7266658,100.988606 C49.4720602,99.383351 47.9725135,96.9309201 47.0075484,94.3758011 C46.8429455,93.937867 46.6919338,93.4954026 46.5545131,93.0468977 C46.38689,92.4972149 46.2388985,91.9414916 46.1090284,91.3797279 C45.7028068,89.6128903 45.4793094,87.8052796 45.4128642,85.9946486 C45.3705809,84.8409188 45.3932327,83.687189 45.474779,82.5349692 C45.5366938,81.6832629 45.6333414,80.8345769 45.7647216,79.9919313 C45.8628792,79.3561718 45.9821785,78.7219224 46.1195992,78.0922034 C47.1177869,73.566381 49.1851379,69.1840198 52.5164573,65.911595 C53.2277226,65.2169409 53.9888219,64.5811814 54.7952247,63.9997862 L54.8948924,63.9288106 C56.4850462,62.032103 57.6946504,59.822801 58.4527294,57.4670176 C58.6430042,56.8780717 58.8030767,56.2800651 58.9329468,55.6729979 C58.9933515,55.3800351 59.050736,55.0855621 59.0915092,54.788069 C58.2216814,54.1190869 57.4545417,53.3141942 56.7764989,52.4519171 C55.9232825,51.3631223 55.2044665,50.1595586 54.6880063,48.8729385 C54.2999061,47.9079733 54.0265748,46.8916642 53.9344577,45.8542134 C53.8770732,45.1912718 53.8921744,44.5222897 54.0009028,43.8653886 C54.0764087,43.3912117 54.2017485,42.9245853 54.3739019,42.4775905 C54.7680426,41.4446701 55.415883,40.5280288 56.225306,39.7805206 C56.8323733,39.2187568 57.522497,38.7536406 58.2518838,38.3700707 C58.5735388,38.2009376 58.9012344,38.0469056 59.2364805,37.9064646 C59.4901802,37.8007564 59.7469002,37.7025988 60.014191,37.628603 C60.3584978,37.5349757 60.7088451,37.4821216 61.0652328,37.4594698 C61.2041636,37.4549395 61.3446046,37.4519193 61.4850455,37.4549395 C61.761397,37.4640002 62.0362384,37.4896722 62.3080596,37.5364858 C63.7200195,37.7856552 65.0051296,38.5165521 66.1331874,39.3727888 C67.1494965,40.1474791 68.0691581,41.0429788 68.9253948,41.9898226 C69.0160018,42.0879802 69.1050988,42.1861378 69.1911755,42.2858056 L69.1911755,42.2858056 L69.1911755,42.2858056 Z M54.3074567,68.5376895 C51.7704592,71.2000268 50.1561435,74.6476252 49.2938664,78.1994217 C49.135304,78.8548127 48.9993934,79.5177543 48.890665,80.1852263 C48.7638151,80.9448154 48.6686777,81.7089349 48.6067629,82.4745645 C48.519176,83.5135254 48.4904838,84.5585268 48.5176659,85.6005079 C48.5614593,87.2223742 48.7441836,88.8427303 49.0900005,90.4283538 C49.2138301,91.0021985 49.3618217,91.5730229 49.5354852,92.1347867 C49.6759261,92.5923523 49.8314682,93.0453875 50.0066419,93.4923823 C50.1183906,93.7777946 50.2376898,94.0571663 50.3660498,94.335028 C51.1331896,96.0082382 52.2265147,97.610473 53.7925066,98.625272 C54.0175141,98.7702433 54.2515823,98.9031336 54.491691,99.0209228 C54.8329776,99.1885458 55.1923856,99.3274766 55.557834,99.434695 C56.1890632,99.6174192 56.8399239,99.7019858 57.4953149,99.7201072 C57.8864353,99.7261477 58.2790659,99.7155769 58.6716965,99.7125566 C59.6366616,99.7019858 60.6031369,99.6989656 61.568102,99.6959453 C64.2379898,99.6929251 66.9063676,99.7019858 69.5732352,99.7201072 C71.0999641,99.7125566 72.626693,99.7034959 74.1534218,99.6989656 C75.8749559,99.6959453 77.598,99.6929251 79.3210442,99.6989656 C79.9809655,99.7019858 80.6393768,99.705006 81.3008083,99.7125566 C81.694949,99.7155769 82.0905998,99.7261477 82.4862506,99.7201072 C82.6417927,99.7155769 82.7973348,99.7065162 82.9528769,99.6959453 C83.5433329,99.6476216 84.1277484,99.5388931 84.6910222,99.3486183 C85.0247582,99.2368696 85.3509436,99.0964287 85.663538,98.9303157 C87.5043713,97.9608202 88.7638093,96.1879422 89.6155156,94.335028 C89.774078,93.9877009 89.9220695,93.6328233 90.0579801,93.2734153 C90.2286234,92.8218901 90.3796351,92.3613043 90.5155457,91.8992083 C90.6816586,91.329894 90.8236097,90.7545392 90.9444191,90.174654 C91.2555033,88.6705769 91.4201061,87.1362975 91.4608793,85.6005079 C91.4895716,84.5585268 91.4593692,83.5135254 91.3732925,82.4745645 C91.302317,81.6122874 91.1920784,80.7530305 91.0425767,79.898304 C90.9232775,79.2338522 90.7828365,78.5739309 90.6167236,77.9185398 C89.7378352,74.4724515 88.1416409,71.1305613 85.677129,68.5407097 C85.6574975,68.5422198 85.637866,68.5422198 85.612194,68.5437299 L54.4539381,68.5437299 C54.3874929,68.5407097 54.34974,68.5407097 54.3074567,68.5376895 L54.3074567,68.5376895 L54.3074567,68.5376895 Z M78.1280513,56.0399565 C78.0616061,56.0520374 77.9906306,56.0626082 77.9211652,56.0686487 C72.7142798,56.2332515 67.502864,56.073179 62.2929584,56.0716689 C62.2053716,56.0777094 62.1192949,56.0792195 62.0317081,56.073179 C61.92751,56.6032303 61.79915,57.1272411 61.6526686,57.6467215 C61.0395608,59.8273313 60.091207,61.9158239 58.8544207,63.8125316 C58.4950127,64.3637245 58.1099327,64.8952859 57.7037111,65.4132562 C65.8689168,65.3513414 74.0386529,65.0991518 82.1993282,65.3090581 C81.6843782,64.640076 81.2162417,63.9363612 80.7918987,63.2084846 C79.7589783,61.4340964 78.9918385,59.5086965 78.4693378,57.5213818 C78.3409779,57.0321037 78.2262089,56.5367851 78.1280513,56.0399565 L78.1280513,56.0399565 L78.1280513,56.0399565 Z M72.575349,52.8475679 C72.2536939,52.2118084 71.9033466,51.5926602 71.5454488,50.9795525 C70.7314954,49.5811836 69.8465665,48.2235879 68.8967026,46.9128058 C68.4346066,46.272516 67.9498588,45.6473273 67.4469897,45.0402601 C66.8353921,44.3033227 66.1905719,43.5905472 65.4974279,42.9306258 C65.0579837,42.5138334 64.6004181,42.1136522 64.1126501,41.7557543 C63.7426713,41.4809129 63.353061,41.2302334 62.9407989,41.0218372 C62.4198083,40.7575666 61.8278422,40.5416198 61.2328559,40.5733323 C61.0848644,40.582393 60.938383,40.6050447 60.7964319,40.647328 C60.6741124,40.685081 60.5563232,40.7349149 60.438534,40.7832386 C60.219567,40.8768659 60.0021101,40.9765337 59.7891835,41.083752 C58.7864654,41.597192 57.8486824,42.3356395 57.3714853,43.382151 C57.2612467,43.6252799 57.1766801,43.8789796 57.1192956,44.14023 C56.9169399,45.052341 57.034729,46.0097555 57.2959794,46.8961946 C57.5149464,47.6497432 57.8411318,48.3685592 58.2307421,49.0481121 C58.6898179,49.8499845 59.2410108,50.6020231 59.8692197,51.2785557 C60.2784616,51.7195101 60.720926,52.1347924 61.2132244,52.4806093 C61.3808474,52.5968884 61.5514907,52.707127 61.7327048,52.7992441 C61.8535142,52.8596488 61.978854,52.9155232 62.1102342,52.9487458 C62.1268455,52.951766 62.1419467,52.9547863 62.1570478,52.9562964 C62.1902704,52.9562964 62.2053716,52.9547863 62.2250031,52.9547863 C65.6726015,52.849078 69.1247303,52.8113251 72.575349,52.8475679 L72.575349,52.8475679 L72.575349,52.8475679 Z M75.9580123,52.7192079 C75.967073,52.7222281 75.9761337,52.7237383 75.9867046,52.7252484 C76.1226151,52.7675317 76.2539954,52.8249161 76.3914161,52.8656893 C76.4925939,52.8928714 76.5967921,52.9094827 76.7009902,52.9140131 C77.2234908,52.938175 77.7218296,52.6723943 78.1295614,52.3764112 C78.2231887,52.3084559 78.3153059,52.2374804 78.4044028,52.1619745 C78.5327628,52.0532461 78.6596127,51.9384771 78.7789119,51.8191778 C78.9102922,51.6893077 79.0371421,51.5533971 79.1579515,51.4144663 C79.9084799,50.5536993 80.5019561,49.5555116 80.9927443,48.5256114 C81.3491321,47.7781032 81.6511556,47.0019028 81.8942845,46.2090911 C82.1238224,45.4600727 82.3050365,44.692933 82.4122548,43.9167326 C82.4847405,43.3927218 82.5255136,42.8641806 82.5058821,42.3371496 C82.4953113,41.9656607 82.4545381,41.5911515 82.3594007,41.2332537 C82.3442995,41.1773793 82.3291984,41.1199948 82.3095668,41.0641205 C82.2144294,40.7771982 82.0664379,40.4600735 81.7870662,40.3120819 C81.6934389,40.2652683 81.5983015,40.2214749 81.5016539,40.1791916 C81.2796666,40.0900947 81.0561692,40.0191191 80.8236111,39.9677751 C80.2331552,39.8409253 79.6200474,39.849986 79.0250611,39.9451234 C78.1658042,40.0825441 77.3382598,40.3890979 76.5560189,40.7651172 C76.3159102,40.8813963 76.0773116,41.0037158 75.8447535,41.1335859 C75.5306491,41.3087595 75.2225851,41.4929939 74.9205616,41.6862889 C74.5475625,41.9248875 74.1851343,42.1785873 73.8302567,42.4398376 C73.3092661,42.8234075 72.8048868,43.2296291 72.3156087,43.652462 C71.9199579,43.9967688 71.5303476,44.3531566 71.1543283,44.7201151 C71.4261495,45.0855636 71.6919302,45.4570525 71.9531805,45.8285414 C72.6131019,46.7753851 73.2413108,47.7448806 73.8378073,48.7324975 C74.4735668,49.7865596 75.0821441,50.8632734 75.6182359,51.9732098 C75.7375352,52.219359 75.8538142,52.4670183 75.9580123,52.7192079 L75.9580123,52.7192079 L75.9580123,52.7192079 Z" id="Shape"></path>
            </g>
        </g>
    </g>
</svg>