<?xml version="1.0" encoding="UTF-8"?>
<svg width="63px" height="71px" viewBox="0 0 63 71" version="1.1" xmlns="http://www.w3.org/2000/svg" xmlns:xlink="http://www.w3.org/1999/xlink">
    <!-- Generator: Sketch 47.1 (45422) - http://www.bohemiancoding.com/sketch -->
    <title>person</title>
    <desc>Created with Sketch.</desc>
    <defs></defs>
    <g id="Visual-2" stroke="none" stroke-width="1" fill="none" fill-rule="evenodd">
        <g id="01_startseite" transform="translate(-1089.000000, -4631.000000)" stroke="#000000" stroke-width="3">
            <g id="Group-13" transform="translate(1050.000000, 4596.000000)">
                <path d="M81.2272727,104 L94.6363636,104 L94.6363636,104 C97.5986182,104 100,101.600246 100,98.64 L100,71.84 C100,64.9668195 95.6848113,59.1008218 89.6141112,56.7999491 C92.6312988,54.902802 94.6363636,51.5453963 94.6363636,47.72 C94.6363636,41.7995075 89.8336,37 83.9090909,37 C77.9845818,37 73.1818182,41.7995075 73.1818182,47.72 C73.1818182,51.5453963 75.186883,54.902802 78.2040706,56.7999491 C75.0371762,58.0002423 72.3480235,60.1707427 70.5,62.9483091 C68.6519765,60.1707427 65.9628238,58.0002423 62.7959294,56.7999491 C65.813117,54.902802 67.8181818,51.5453963 67.8181818,47.72 C67.8181818,41.7995075 63.0154182,37 57.0909091,37 C51.1664,37 46.3636364,41.7995075 46.3636364,47.72 C46.3636364,51.5453963 48.3687011,54.902802 51.3858889,56.7999491 C45.3151887,59.1008218 41,64.9668195 41,71.84 L41,98.64 L41,98.64 C41,101.600246 43.4013818,104 46.3636364,104 L59.7727273,104 L59.7727273,93.28 C59.7727273,89.0717788 62.1991846,85.4299029 65.7302249,83.6753501 C63.7434023,82.2113851 62.4545455,79.8561049 62.4545455,77.2 C62.4545455,72.7596307 66.0566183,69.16 70.5,69.16 C74.9433817,69.16 78.5454545,72.7596307 78.5454545,77.2 C78.5454545,79.8561049 77.2565977,82.2113851 75.2697751,83.6753501 C78.8008154,85.4299029 81.2272727,89.0717788 81.2272727,93.28 L81.2272727,104 Z" id="person"></path>
            </g>
        </g>
    </g>
</svg>