<?xml version="1.0" encoding="UTF-8"?>
<svg width="119px" height="73px" viewBox="0 0 119 73" version="1.1" xmlns="http://www.w3.org/2000/svg" xmlns:xlink="http://www.w3.org/1999/xlink">
    <!-- Generator: Sketch 47.1 (45422) - http://www.bohemiancoding.com/sketch -->
    <title>jemen</title>
    <desc>Created with Sketch.</desc>
    <defs></defs>
    <g id="Visual-2" stroke="none" stroke-width="1" fill="none" fill-rule="evenodd">
        <g id="01_startseite" transform="translate(-798.000000, -4629.000000)" stroke="#000000" stroke-width="3">
            <g id="Group-12" transform="translate(787.000000, 4596.000000)">
                <path d="M103.493144,38.0009126 C97.9739837,39.2241853 84.1669146,38.3032946 82.3333065,39.2241853 C80.4905304,40.1496576 67.6186015,49.3494018 65.7849934,53.6377288 C63.9422172,57.9306374 61.178053,58.539983 58.4184728,56.400401 C55.6634766,54.2470744 44.3088584,54.8655831 43.4012224,53.9355293 C42.4798343,53.0238017 34.2010937,52.1074925 30.2175801,52.7214196 C26.2248985,53.3353468 24.079577,50.8750566 22.2505529,51.4844022 C20.4031927,52.0937478 18.5604166,54.2470744 17.6527806,55.4657657 C16.7313925,56.6982015 18.5604166,60.0748009 17.9599099,61.3026552 C17.7857172,61.6142003 15.8191725,62.6542112 13,63.9966042 C13.9672283,66.379008 14.5310628,68.8347167 13.907636,70.6123565 C12.6424464,74.2730117 13.7563633,82.8221764 17.079778,87.7381752 C20.4123608,92.6450108 19.1425872,101.688982 20.7286582,103.443715 C22.3193132,105.18012 34.6915839,104.873157 40.2382484,101.217083 C45.794081,97.5747543 49.6034018,96.9287563 54.0499015,96.9287563 C58.4918171,96.9287563 64.3593631,93.1306547 65.7895774,91.2201501 C67.2152077,89.32339 73.7199324,89.1676175 76.4153364,89.4883257 C79.1107403,89.8044524 81.8107282,86.7943767 84.8224295,83.784301 C87.8341308,80.7604807 97.359725,79.495974 107.51333,76.3209627 C117.662351,73.1551145 115.439101,68.3994698 117.813623,65.5360036 C119.807672,63.1490182 122.608509,63.8408316 127,62.0906811 C122.067594,51.9929538 116.58969,40.6765354 113.848446,35 C108.971048,36.5027471 105.024207,37.6618782 103.493144,38.0009126 Z M70,70.5 L58,70.5 L70,70.5 L70,58 L70,70.5 Z M70,70.5 L82,70.5 L70,70.5 L70,82 L70,70.5 Z" id="jemen"></path>
            </g>
        </g>
    </g>
</svg>